{
	"asset": {
		"generator": "Khronos glTF Blender I/O v4.0.44",
		"version": "2.0"
	},
	"scene": 0,
	"scenes": [
		{
			"name": "Scene",
			"nodes": [3]
		}
	],
	"nodes": [
		{
			"mesh": 0,
			"name": "defaultMaterial"
		},
		{
			"children": [0],
			"name": "wrench_low"
		},
		{
			"children": [1],
			"name": "Collada visual scene group",
			"rotation": [0.70710688829422, 0, 0, 0.7071066498756409]
		},
		{
			"children": [2],
			"name": "Sketchfab_model",
			"rotation": [
				-0.1900092214345932, 0.0707848072052002, -0.11458934843540192, 0.9724995493888855
			],
			"translation": [-0.00039090446080081165, 0.00851207971572876, 0]
		}
	],
	"meshes": [
		{
			"name": "defaultMaterial",
			"primitives": [
				{
					"attributes": {
						"POSITION": 0,
						"NORMAL": 1,
						"TEXCOORD_0": 2
					},
					"indices": 3
				}
			]
		}
	],
	"accessors": [
		{
			"bufferView": 0,
			"componentType": 5126,
			"count": 408,
			"max": [1, 0.05020900070667267, 0.24319399893283844],
			"min": [-1, -0.05020900070667267, -0.24319399893283844],
			"type": "VEC3"
		},
		{
			"bufferView": 1,
			"componentType": 5126,
			"count": 408,
			"type": "VEC3"
		},
		{
			"bufferView": 2,
			"componentType": 5126,
			"count": 408,
			"type": "VEC2"
		},
		{
			"bufferView": 3,
			"componentType": 5123,
			"count": 1020,
			"type": "SCALAR"
		}
	],
	"bufferViews": [
		{
			"buffer": 0,
			"byteLength": 4896,
			"byteOffset": 0,
			"target": 34962
		},
		{
			"buffer": 0,
			"byteLength": 4896,
			"byteOffset": 4896,
			"target": 34962
		},
		{
			"buffer": 0,
			"byteLength": 3264,
			"byteOffset": 9792,
			"target": 34962
		},
		{
			"buffer": 0,
			"byteLength": 2040,
			"byteOffset": 13056,
			"target": 34963
		}
	],
	"buffers": [
		{
			"byteLength": 15096,
			"uri": "wrench.bin"
		}
	]
}
