{
	"accessors": [
		{
			"bufferView": 2,
			"componentType": 5126,
			"count": 986,
			"max": [0.45705074071884155, 0.45386821031570435, -0.6384931802749634],
			"min": [-0.4570506513118744, -0.4538688063621521, -0.814349889755249],
			"type": "VEC3"
		},
		{
			"bufferView": 2,
			"byteOffset": 11832,
			"componentType": 5126,
			"count": 986,
			"max": [0.9999687671661377, 0.9986690878868103, 0.1754547357559204],
			"min": [-0.9999687671661377, -0.9986690878868103, -1.0],
			"type": "VEC3"
		},
		{
			"bufferView": 1,
			"componentType": 5126,
			"count": 986,
			"max": [0.9943682551383972, 0.9932608008384705],
			"min": [0.005631903186440468, 0.00572311133146286],
			"type": "VEC2"
		},
		{
			"bufferView": 0,
			"componentType": 5125,
			"count": 5184,
			"type": "SCALAR"
		},
		{
			"bufferView": 2,
			"byteOffset": 23664,
			"componentType": 5126,
			"count": 3454,
			"max": [0.9492232799530029, 0.9492229223251343, 0.9947254657745361],
			"min": [-0.9492231607437134, -0.9492234587669373, -1.0868887901306152],
			"type": "VEC3"
		},
		{
			"bufferView": 2,
			"byteOffset": 65112,
			"componentType": 5126,
			"count": 3454,
			"max": [1.0, 1.0, 1.0],
			"min": [-1.0, -1.0, -1.0],
			"type": "VEC3"
		},
		{
			"bufferView": 1,
			"byteOffset": 7888,
			"componentType": 5126,
			"count": 3454,
			"max": [0.9948244690895081, 0.9924795627593994],
			"min": [0.0018914381507784128, 0.0071886200457811356],
			"type": "VEC2"
		},
		{
			"bufferView": 0,
			"byteOffset": 20736,
			"componentType": 5125,
			"count": 18720,
			"type": "SCALAR"
		}
	],
	"asset": {
		"extras": {
			"author": "Vinny Passmore (https://sketchfab.com/HPrendering)",
			"license": "CC-BY-4.0 (http://creativecommons.org/licenses/by/4.0/)",
			"source": "https://sketchfab.com/3d-models/eye-blend-a8259f43d41e4204a7e9746dfd112c30",
			"title": "Eye Blend"
		},
		"generator": "Sketchfab-12.65.0",
		"version": "2.0"
	},
	"bufferViews": [
		{
			"buffer": 0,
			"byteLength": 95616,
			"name": "floatBufferViews",
			"target": 34963
		},
		{
			"buffer": 0,
			"byteLength": 35520,
			"byteOffset": 95616,
			"byteStride": 8,
			"name": "floatBufferViews",
			"target": 34962
		},
		{
			"buffer": 0,
			"byteLength": 106560,
			"byteOffset": 131136,
			"byteStride": 12,
			"name": "floatBufferViews",
			"target": 34962
		}
	],
	"buffers": [
		{
			"byteLength": 237696,
			"uri": "scene.bin"
		}
	],
	"extensionsUsed": ["KHR_materials_clearcoat", "KHR_materials_transmission"],
	"images": [
		{
			"uri": "textures/Iris_001_Material_baseColor.png"
		},
		{
			"uri": "textures/Sclera_001_Material_baseColor.png"
		},
		{
			"uri": "textures/Sclera_001_Material_metallicRoughness.png"
		},
		{
			"uri": "textures/Sclera_001_Material_transmission.png"
		}
	],
	"materials": [
		{
			"emissiveFactor": [0.062121212159999994, 0.062121212159999994, 0.062121212159999994],
			"extensions": {
				"KHR_materials_clearcoat": {
					"clearcoatFactor": 0.0865530303,
					"clearcoatRoughnessFactor": 0.0
				},
				"KHR_materials_transmission": {
					"transmissionFactor": 0.0
				}
			},
			"name": "Iris_001_Material",
			"pbrMetallicRoughness": {
				"baseColorFactor": [0.8617452327, 0.7408799559, 0.1966292152, 1.0],
				"baseColorTexture": {
					"index": 0
				},
				"metallicFactor": 0.0077651515,
				"roughnessFactor": 0.6589015152
			}
		},
		{
			"alphaMode": "BLEND",
			"extensions": {
				"KHR_materials_clearcoat": {
					"clearcoatFactor": 0.353219697,
					"clearcoatRoughnessFactor": 0.0441287879
				},
				"KHR_materials_transmission": {
					"transmissionFactor": 1.0,
					"transmissionTexture": {
						"index": 3
					}
				}
			},
			"name": "Sclera_001_Material",
			"pbrMetallicRoughness": {
				"baseColorTexture": {
					"index": 1
				},
				"metallicFactor": 0.0,
				"metallicRoughnessTexture": {
					"index": 2
				}
			}
		}
	],
	"meshes": [
		{
			"name": "Iris_Iris_001_Material_0",
			"primitives": [
				{
					"attributes": {
						"NORMAL": 1,
						"POSITION": 0,
						"TEXCOORD_0": 2
					},
					"indices": 3,
					"material": 0,
					"mode": 4
				}
			]
		},
		{
			"name": "Sclera_Sclera_001_Material_0",
			"primitives": [
				{
					"attributes": {
						"NORMAL": 5,
						"POSITION": 4,
						"TEXCOORD_0": 6
					},
					"indices": 7,
					"material": 1,
					"mode": 4
				}
			]
		}
	],
	"nodes": [
		{
			"children": [1],
			"matrix": [
				1.0, 0.0, 0.0, 0.0, 0.0, 2.220446049250313e-16, -1.0, 0.0, 0.0, 1.0, 2.220446049250313e-16,
				0.0, 0.0, 0.0, 0.0, 1.0
			],
			"name": "Sketchfab_model"
		},
		{
			"children": [2],
			"matrix": [1.0, 0.0, 0.0, 0.0, 0.0, 0.0, 1.0, 0.0, 0.0, -1.0, 0.0, 0.0, 0.0, 0.0, 0.0, 1.0],
			"name": "6f415a151ac04ba7a094be28e2a1d1e5.fbx"
		},
		{
			"children": [3, 5, 7, 10, 13, 16],
			"name": "RootNode"
		},
		{
			"children": [4],
			"matrix": [
				123.88134002685547, 0.0, 0.0, 0.0, 0.0, 123.88134002685511, -9.352781177804909e-6, 0.0, 0.0,
				9.352781177804909e-6, 123.88134002685511, 0.0, 0.0, 0.0, -2.8244616985321045, 1.0
			],
			"name": "Iris"
		},
		{
			"mesh": 0,
			"name": "Iris_Iris_001_Material_0"
		},
		{
			"children": [6],
			"matrix": [
				120.4636459350586, 0.0, 0.0, 0.0, 0.0, 120.46364593505825, -9.094752446711724e-6, 0.0, 0.0,
				9.094752446711724e-6, 120.46364593505825, 0.0, 0.0, 0.0, 0.0, 1.0
			],
			"name": "Sclera"
		},
		{
			"mesh": 1,
			"name": "Sclera_Sclera_001_Material_0"
		},
		{
			"children": [8],
			"matrix": [
				100.0, 0.0, 0.0, 0.0, 0.0, 99.99999999999972, -7.5497901264043296e-6, 0.0, 0.0,
				7.5497901264043296e-6, 99.99999999999972, 0.0, 0.0, 590.1090698242188, 0.0, 1.0
			],
			"name": "Sun"
		},
		{
			"children": [9],
			"matrix": [
				1.0, 0.0, 0.0, 0.0, 0.0, 2.220446049250313e-16, 1.0, 0.0, 0.0, -1.0, 2.220446049250313e-16,
				0.0, 0.0, 0.0, 0.0, 1.0
			],
			"name": "Object_8"
		},
		{
			"name": "Object_9"
		},
		{
			"children": [11],
			"matrix": [
				-99.99999999999886, 1.5099579909783707e-5, -2.109689728004315e-20, 0.0,
				-1.5099579909783665e-5, -99.99999999999858, -7.549790126404328e-6, 0.0,
				-1.1399866142542788e-12, -7.549790126404241e-6, 99.99999999999972, 0.0, 0.7415263652801514,
				-823.109619140625, 2.0227105617523193, 1.0
			],
			"name": "Sun.001"
		},
		{
			"children": [12],
			"matrix": [
				1.0, 0.0, 0.0, 0.0, 0.0, 2.220446049250313e-16, 1.0, 0.0, 0.0, -1.0, 2.220446049250313e-16,
				0.0, 0.0, 0.0, 0.0, 1.0
			],
			"name": "Object_11"
		},
		{
			"name": "Object_12"
		},
		{
			"children": [14],
			"matrix": [
				-99.99999999999774, -1.5099579909783534e-5, -1.5099583094979555e-5, 0.0,
				-1.509958015498234e-5, -1.9470721168701743e-5, 99.99999999999696, 0.0,
				-1.5099582849780796e-5, 99.99999999999696, 1.9470718881642313e-5, 0.0, 0.7415263652801514,
				12.632179260253906, 1338.7498779296875, 1.0
			],
			"name": "Sun.002"
		},
		{
			"children": [15],
			"matrix": [
				1.0, 0.0, 0.0, 0.0, 0.0, 2.220446049250313e-16, 1.0, 0.0, 0.0, -1.0, 2.220446049250313e-16,
				0.0, 0.0, 0.0, 0.0, 1.0
			],
			"name": "Object_14"
		},
		{
			"name": "Object_15"
		},
		{
			"children": [17],
			"matrix": [
				-99.99999999999771, 1.5099579909783534e-5, 1.5099575989552192e-5, 0.0,
				-1.5099573529517991e-5, 1.6292070270651493e-5, -99.99999999999753, 0.0,
				-1.5099582369816692e-5, -99.99999999999753, -1.6292067983592062e-5, 0.0, 0.7415263652801514,
				12.632179260253906, -1212.7784423828125, 1.0
			],
			"name": "Sun.003"
		},
		{
			"children": [18],
			"matrix": [
				1.0, 0.0, 0.0, 0.0, 0.0, 2.220446049250313e-16, 1.0, 0.0, 0.0, -1.0, 2.220446049250313e-16,
				0.0, 0.0, 0.0, 0.0, 1.0
			],
			"name": "Object_17"
		},
		{
			"name": "Object_18"
		}
	],
	"samplers": [
		{
			"magFilter": 9729,
			"minFilter": 9987,
			"wrapS": 10497,
			"wrapT": 10497
		},
		{
			"magFilter": 9729,
			"minFilter": 9987,
			"wrapS": 33648,
			"wrapT": 33648
		}
	],
	"scene": 0,
	"scenes": [
		{
			"name": "Sketchfab_Scene",
			"nodes": [0]
		}
	],
	"textures": [
		{
			"sampler": 0,
			"source": 0
		},
		{
			"sampler": 0,
			"source": 1
		},
		{
			"sampler": 0,
			"source": 2
		},
		{
			"sampler": 1,
			"source": 3
		}
	]
}
